<?xml version="1.0" standalone="no"?>
<!DOCTYPE svg PUBLIC "-//W3C//DTD SVG 20010904//EN"
 "http://www.w3.org/TR/2001/REC-SVG-20010904/DTD/svg10.dtd">
<svg version="1.0" xmlns="http://www.w3.org/2000/svg"
 width="800.000000pt" height="800.000000pt" viewBox="0 0 800.000000 800.000000"
 preserveAspectRatio="xMidYMid meet">

<g transform="translate(0.000000,800.000000) scale(0.100000,-0.100000)"
fill="#000000" stroke="none">
<path d="M1669 6093 c-29 -7 -84 -227 -113 -453 -39 -301 -66 -784 -66 -1173
0 -386 17 -621 67 -934 l16 -103 -29 -22 c-45 -34 -186 -177 -236 -240 -100
-124 -209 -317 -261 -465 -313 -874 152 -1829 1033 -2122 330 -111 471 -135
765 -135 200 0 243 2 332 22 408 89 734 321 956 682 85 138 170 352 207 520
l12 55 152 84 c907 503 1786 1179 2197 1691 82 102 209 288 209 306 0 17 -42
51 -47 38 -9 -26 -141 -217 -211 -304 -112 -141 -432 -455 -637 -626 -477
-396 -1029 -771 -1555 -1057 l-85 -46 0 237 c0 182 -4 258 -17 327 -22 118
-61 250 -103 354 l-34 84 35 41 c304 355 642 805 837 1116 82 131 237 407 237
422 0 5 -11 8 -25 8 -14 0 -25 6 -25 13 0 6 -38 -55 -83 -138 -157 -282 -255
-432 -482 -739 -197 -268 -501 -646 -523 -653 -4 -1 -23 25 -42 59 -177 313
-495 569 -870 703 -143 51 -276 93 -335 105 -53 11 -60 11 -72 -6 -12 -17 -13
-16 -13 4 0 15 -6 22 -20 22 -14 0 -18 -5 -13 -17 4 -10 11 -21 17 -25 7 -5 4
-8 -6 -8 -11 0 -20 10 -24 25 -3 14 -13 29 -21 34 -14 7 -10 32 27 192 23 101
62 256 87 344 50 182 207 656 282 850 28 71 48 131 46 133 -2 2 -18 1 -35 -3
-21 -5 -35 -16 -42 -33 -5 -15 -41 -110 -78 -212 -161 -439 -227 -664 -355
-1205 -8 -33 -10 -61 -5 -63 5 -2 0 -12 -10 -22 -51 -51 -113 -54 -165 -9 -36
32 -36 32 -121 25 -226 -17 -512 -117 -719 -251 -61 -40 -70 -43 -76 -28 -10
26 -47 308 -61 463 -7 79 -13 290 -13 510 0 693 59 1316 149 1569 9 24 16 47
16 52 0 9 -22 10 -51 2z m1123 -2614 c146 -29 197 -42 243 -58 28 -11 69 -24
93 -30 23 -7 42 -15 42 -19 0 -5 24 -16 53 -27 28 -10 90 -43 137 -72 47 -30
93 -60 104 -66 10 -7 30 -22 44 -35 14 -13 46 -40 70 -60 24 -20 56 -50 71
-67 14 -16 45 -50 69 -76 23 -25 42 -51 42 -56 0 -6 7 -17 16 -24 26 -22 73
-98 139 -229 34 -67 95 -252 98 -296 1 -22 5 -41 9 -44 14 -11 30 -229 25
-340 -15 -292 -145 -599 -355 -837 -148 -168 -382 -320 -612 -397 -620 -206
-1320 32 -1688 575 -94 139 -180 341 -217 509 -24 114 -30 317 -12 421 19 103
56 229 68 229 4 0 6 6 3 14 -8 21 53 186 69 186 5 0 6 4 3 8 -8 13 94 195 125
222 3 3 24 30 47 60 36 48 147 157 204 200 11 8 27 23 36 32 12 13 19 15 29 6
10 -8 12 -7 7 5 -6 17 25 39 48 34 7 -2 10 -2 5 1 -8 4 76 72 90 72 5 0 35 14
67 30 31 17 62 27 68 24 6 -4 8 -2 4 4 -4 6 7 13 26 17 18 4 39 12 46 17 6 6
12 7 12 4 0 -4 9 -2 21 4 23 13 121 36 229 55 94 16 351 19 422 4z"/>
<path d="M2170 3100 c-13 -8 -12 -10 3 -10 9 0 17 5 17 10 0 12 -1 12 -20 0z"/>
<path d="M2097 3049 c7 -7 15 -10 18 -7 3 3 -2 9 -12 12 -14 6 -15 5 -6 -5z"/>
<path d="M1720 2990 c0 -5 5 -10 11 -10 5 0 7 5 4 10 -3 6 -8 10 -11 10 -2 0
-4 -4 -4 -10z"/>
<path d="M2855 2803 c-10 -43 -20 -83 -22 -90 -2 -6 4 -14 15 -17 32 -11 128
-108 152 -155 47 -93 63 -208 41 -303 -8 -35 -7 -36 21 -40 21 -3 32 0 36 11
12 29 7 240 -6 253 -7 7 -12 19 -12 27 0 27 -96 145 -139 171 -45 28 -48 39
-27 102 24 75 27 106 10 112 -42 16 -50 8 -69 -71z"/>
<path d="M3403 2825 c0 -8 4 -12 9 -9 5 3 6 10 3 15 -9 13 -12 11 -12 -6z"/>
<path d="M3630 2810 c6 -11 13 -20 16 -20 2 0 0 9 -6 20 -6 11 -13 20 -16 20
-2 0 0 -9 6 -20z"/>
<path d="M2320 2669 c0 -5 5 -7 10 -4 6 3 10 8 10 11 0 2 -4 4 -10 4 -5 0 -10
-5 -10 -11z"/>
<path d="M2356 2672 c-3 -5 1 -9 9 -9 8 0 12 4 9 9 -3 4 -7 8 -9 8 -2 0 -6 -4
-9 -8z"/>
<path d="M2295 2619 c-4 -6 -4 -13 -1 -16 3 -4 6 -1 6 5 0 6 8 13 18 15 15 4
15 5 0 6 -9 0 -20 -4 -23 -10z"/>
<path d="M2568 2490 c-20 -11 -45 -35 -57 -53 -59 -95 -35 -148 132 -289 143
-121 166 -145 212 -219 51 -82 66 -134 68 -225 1 -69 -3 -89 -27 -137 -55
-113 -171 -185 -313 -195 l-72 -5 -17 -73 c-10 -41 -16 -75 -13 -77 2 -3 16
-7 30 -11 23 -5 27 -2 32 22 3 15 11 47 17 72 l11 46 93 12 c71 10 109 21 157
47 74 39 97 63 136 137 23 46 27 65 27 145 1 61 -3 96 -11 104 -7 7 -13 25
-13 40 0 15 -11 41 -25 57 -14 17 -25 34 -25 39 0 15 -92 114 -144 155 -99 79
-192 173 -210 215 -16 37 -17 47 -6 75 20 50 79 107 118 114 24 5 30 9 20 15
-22 15 -81 9 -120 -11z"/>
<path d="M2211 2374 c0 -11 3 -14 6 -6 3 7 2 16 -1 19 -3 4 -6 -2 -5 -13z"/>
<path d="M2802 2330 c0 -14 2 -19 5 -12 2 6 2 18 0 25 -3 6 -5 1 -5 -13z"/>
<path d="M2500 1936 c0 -2 9 -6 20 -9 11 -3 18 -1 14 4 -5 9 -34 13 -34 5z"/>
<path d="M2286 1848 c-21 -107 17 -186 109 -229 51 -24 80 -25 38 -1 -40 21
-65 55 -82 109 -12 37 -11 60 5 115 3 11 -3 19 -18 24 -41 14 -46 12 -52 -18z"/>
<path d="M1591 1844 c0 -11 3 -14 6 -6 3 7 2 16 -1 19 -3 4 -6 -2 -5 -13z"/>
<path d="M2611 1674 c0 -11 3 -14 6 -6 3 7 2 16 -1 19 -3 4 -6 -2 -5 -13z"/>
<path d="M1816 1428 c3 -5 10 -6 15 -3 13 9 11 12 -6 12 -8 0 -12 -4 -9 -9z"/>
<path d="M3462 1215 c-11 -12 -10 -15 3 -15 8 0 15 7 15 15 0 18 -2 18 -18 0z"/>
<path d="M3086 1192 c-2 -4 0 -14 6 -22 8 -12 9 -12 5 2 -3 9 -1 19 6 22 9 3
9 5 0 5 -6 1 -14 -3 -17 -7z"/>
<path d="M3104 995 c-16 -12 -17 -14 -3 -15 9 0 19 7 23 15 7 19 5 19 -20 0z"/>
<path d="M2935 5710 c-3 -6 1 -7 9 -4 18 7 21 14 7 14 -6 0 -13 -4 -16 -10z"/>
<path d="M2530 3781 c0 -5 9 -16 20 -26 31 -28 109 -26 138 3 12 12 21 22 20
23 -19 5 -178 5 -178 0z"/>
</g>
</svg>
